<svg width="200" height="200" viewBox="0 0 200 200" fill="none" xmlns="http://www.w3.org/2000/svg">
<rect width="200" height="200" rx="10" fill="#494462"/>
<path d="M54.1328 155C54.1328 153.627 54.4395 152.4 55.0528 151.32C55.6795 150.227 56.5261 149.38 57.5928 148.78C58.6728 148.167 59.8795 147.86 61.2128 147.86C62.7728 147.86 64.1395 148.26 65.3128 149.06C66.4861 149.86 67.3061 150.967 67.7728 152.38H64.5528C64.2328 151.713 63.7795 151.213 63.1928 150.88C62.6195 150.547 61.9528 150.38 61.1928 150.38C60.3795 150.38 59.6528 150.573 59.0128 150.96C58.3861 151.333 57.8928 151.867 57.5328 152.56C57.1861 153.253 57.0128 154.067 57.0128 155C57.0128 155.92 57.1861 156.733 57.5328 157.44C57.8928 158.133 58.3861 158.673 59.0128 159.06C59.6528 159.433 60.3795 159.62 61.1928 159.62C61.9528 159.62 62.6195 159.453 63.1928 159.12C63.7795 158.773 64.2328 158.267 64.5528 157.6H67.7728C67.3061 159.027 66.4861 160.14 65.3128 160.94C64.1528 161.727 62.7861 162.12 61.2128 162.12C59.8795 162.12 58.6728 161.82 57.5928 161.22C56.5261 160.607 55.6795 159.76 55.0528 158.68C54.4395 157.6 54.1328 156.373 54.1328 155ZM69.1444 156.42C69.1444 155.3 69.3644 154.307 69.8044 153.44C70.2577 152.573 70.8644 151.907 71.6244 151.44C72.3977 150.973 73.2577 150.74 74.2044 150.74C75.031 150.74 75.751 150.907 76.3644 151.24C76.991 151.573 77.491 151.993 77.8644 152.5V150.92H80.6844V162H77.8644V160.38C77.5044 160.9 77.0044 161.333 76.3644 161.68C75.7377 162.013 75.011 162.18 74.1844 162.18C73.251 162.18 72.3977 161.94 71.6244 161.46C70.8644 160.98 70.2577 160.307 69.8044 159.44C69.3644 158.56 69.1444 157.553 69.1444 156.42ZM77.8644 156.46C77.8644 155.78 77.731 155.2 77.4644 154.72C77.1977 154.227 76.8377 153.853 76.3844 153.6C75.931 153.333 75.4444 153.2 74.9244 153.2C74.4044 153.2 73.9244 153.327 73.4844 153.58C73.0444 153.833 72.6844 154.207 72.4044 154.7C72.1377 155.18 72.0044 155.753 72.0044 156.42C72.0044 157.087 72.1377 157.673 72.4044 158.18C72.6844 158.673 73.0444 159.053 73.4844 159.32C73.9377 159.587 74.4177 159.72 74.9244 159.72C75.4444 159.72 75.931 159.593 76.3844 159.34C76.8377 159.073 77.1977 158.7 77.4644 158.22C77.731 157.727 77.8644 157.14 77.8644 156.46ZM85.9191 147.2V162H83.1191V147.2H85.9191ZM98.6855 156.22C98.6855 156.62 98.6588 156.98 98.6055 157.3H90.5055C90.5721 158.1 90.8521 158.727 91.3455 159.18C91.8388 159.633 92.4455 159.86 93.1655 159.86C94.2055 159.86 94.9455 159.413 95.3855 158.52H98.4055C98.0855 159.587 97.4721 160.467 96.5655 161.16C95.6588 161.84 94.5455 162.18 93.2255 162.18C92.1588 162.18 91.1988 161.947 90.3455 161.48C89.5055 161 88.8455 160.327 88.3655 159.46C87.8988 158.593 87.6655 157.593 87.6655 156.46C87.6655 155.313 87.8988 154.307 88.3655 153.44C88.8321 152.573 89.4855 151.907 90.3255 151.44C91.1655 150.973 92.1321 150.74 93.2255 150.74C94.2788 150.74 95.2188 150.967 96.0455 151.42C96.8855 151.873 97.5321 152.52 97.9855 153.36C98.4521 154.187 98.6855 155.14 98.6855 156.22ZM95.7855 155.42C95.7721 154.7 95.5121 154.127 95.0055 153.7C94.4988 153.26 93.8788 153.04 93.1455 153.04C92.4521 153.04 91.8655 153.253 91.3855 153.68C90.9188 154.093 90.6321 154.673 90.5255 155.42H95.7855ZM106.569 150.76C107.889 150.76 108.956 151.18 109.769 152.02C110.583 152.847 110.989 154.007 110.989 155.5V162H108.189V155.88C108.189 155 107.969 154.327 107.529 153.86C107.089 153.38 106.489 153.14 105.729 153.14C104.956 153.14 104.343 153.38 103.889 153.86C103.449 154.327 103.229 155 103.229 155.88V162H100.429V150.92H103.229V152.3C103.603 151.82 104.076 151.447 104.649 151.18C105.236 150.9 105.876 150.76 106.569 150.76ZM112.632 156.42C112.632 155.3 112.852 154.307 113.292 153.44C113.745 152.573 114.359 151.907 115.132 151.44C115.905 150.973 116.765 150.74 117.712 150.74C118.432 150.74 119.119 150.9 119.772 151.22C120.425 151.527 120.945 151.94 121.332 152.46V147.2H124.172V162H121.332V160.36C120.985 160.907 120.499 161.347 119.872 161.68C119.245 162.013 118.519 162.18 117.692 162.18C116.759 162.18 115.905 161.94 115.132 161.46C114.359 160.98 113.745 160.307 113.292 159.44C112.852 158.56 112.632 157.553 112.632 156.42ZM121.352 156.46C121.352 155.78 121.219 155.2 120.952 154.72C120.685 154.227 120.325 153.853 119.872 153.6C119.419 153.333 118.932 153.2 118.412 153.2C117.892 153.2 117.412 153.327 116.972 153.58C116.532 153.833 116.172 154.207 115.892 154.7C115.625 155.18 115.492 155.753 115.492 156.42C115.492 157.087 115.625 157.673 115.892 158.18C116.172 158.673 116.532 159.053 116.972 159.32C117.425 159.587 117.905 159.72 118.412 159.72C118.932 159.72 119.419 159.593 119.872 159.34C120.325 159.073 120.685 158.7 120.952 158.22C121.219 157.727 121.352 157.14 121.352 156.46ZM125.887 156.42C125.887 155.3 126.107 154.307 126.547 153.44C127 152.573 127.607 151.907 128.367 151.44C129.14 150.973 130 150.74 130.947 150.74C131.773 150.74 132.493 150.907 133.107 151.24C133.733 151.573 134.233 151.993 134.607 152.5V150.92H137.427V162H134.607V160.38C134.247 160.9 133.747 161.333 133.107 161.68C132.48 162.013 131.753 162.18 130.927 162.18C129.993 162.18 129.14 161.94 128.367 161.46C127.607 160.98 127 160.307 126.547 159.44C126.107 158.56 125.887 157.553 125.887 156.42ZM134.607 156.46C134.607 155.78 134.473 155.2 134.207 154.72C133.94 154.227 133.58 153.853 133.127 153.6C132.673 153.333 132.187 153.2 131.667 153.2C131.147 153.2 130.667 153.327 130.227 153.58C129.787 153.833 129.427 154.207 129.147 154.7C128.88 155.18 128.747 155.753 128.747 156.42C128.747 157.087 128.88 157.673 129.147 158.18C129.427 158.673 129.787 159.053 130.227 159.32C130.68 159.587 131.16 159.72 131.667 159.72C132.187 159.72 132.673 159.593 133.127 159.34C133.58 159.073 133.94 158.7 134.207 158.22C134.473 157.727 134.607 157.14 134.607 156.46ZM142.661 152.64C143.021 152.053 143.488 151.593 144.061 151.26C144.648 150.927 145.315 150.76 146.061 150.76V153.7H145.321C144.441 153.7 143.775 153.907 143.321 154.32C142.881 154.733 142.661 155.453 142.661 156.48V162H139.861V150.92H142.661V152.64Z" fill="white"/>
<circle cx="100" cy="80" r="41" fill="#494462" stroke="white" stroke-width="2" stroke-dasharray="4 4"/>
<path d="M107.309 67.0167V64.6167C107.309 63.986 106.786 63.4629 106.155 63.4629C105.524 63.4629 105.001 63.986 105.001 64.6167V66.9244H95.0013V64.6167C95.0013 63.986 94.4782 63.4629 93.8474 63.4629C93.2166 63.4629 92.6936 63.986 92.6936 64.6167V67.0167C88.5397 67.4014 86.5243 69.8783 86.2166 73.5552C86.1859 74.0014 86.5551 74.3706 86.9859 74.3706H113.017C113.463 74.3706 113.832 73.986 113.786 73.5552C113.478 69.8783 111.463 67.4014 107.309 67.0167Z" fill="white"/>
<path d="M112.308 76.6777H87.6928C86.8466 76.6777 86.1543 77.37 86.1543 78.2162V87.6931C86.1543 92.3085 88.462 95.3854 93.8466 95.3854H106.154C111.539 95.3854 113.847 92.3085 113.847 87.6931V78.2162C113.847 77.37 113.154 76.6777 112.308 76.6777ZM95.7081 89.5547C95.6312 89.6162 95.5543 89.6931 95.4774 89.7393C95.3851 89.8008 95.2928 89.847 95.2005 89.8777C95.1081 89.9239 95.0158 89.9547 94.9235 89.97C94.8158 89.9854 94.7235 90.0008 94.6158 90.0008C94.4158 90.0008 94.2158 89.9547 94.0312 89.8777C93.8312 89.8008 93.6774 89.6931 93.5235 89.5547C93.2466 89.2623 93.0774 88.8623 93.0774 88.4623C93.0774 88.0623 93.2466 87.6624 93.5235 87.37C93.6774 87.2316 93.8312 87.1239 94.0312 87.047C94.3081 86.9239 94.6158 86.8931 94.9235 86.9547C95.0158 86.97 95.1081 87.0008 95.2005 87.047C95.2928 87.0777 95.3851 87.1239 95.4774 87.1854C95.5543 87.247 95.6312 87.3085 95.7081 87.37C95.9851 87.6624 96.1543 88.0623 96.1543 88.4623C96.1543 88.8623 95.9851 89.2623 95.7081 89.5547ZM95.7081 84.17C95.4158 84.447 95.0158 84.6162 94.6158 84.6162C94.2158 84.6162 93.8158 84.447 93.5235 84.17C93.2466 83.8777 93.0774 83.4777 93.0774 83.0777C93.0774 82.6777 93.2466 82.2777 93.5235 81.9854C93.9543 81.5547 94.6312 81.4162 95.2005 81.6623C95.4005 81.7393 95.5697 81.847 95.7081 81.9854C95.9851 82.2777 96.1543 82.6777 96.1543 83.0777C96.1543 83.4777 95.9851 83.8777 95.7081 84.17ZM101.093 89.5547C100.8 89.8316 100.4 90.0008 100 90.0008C99.6005 90.0008 99.2005 89.8316 98.9081 89.5547C98.6312 89.2623 98.462 88.8623 98.462 88.4623C98.462 88.0623 98.6312 87.6624 98.9081 87.37C99.4774 86.8008 100.524 86.8008 101.093 87.37C101.37 87.6624 101.539 88.0623 101.539 88.4623C101.539 88.8623 101.37 89.2623 101.093 89.5547ZM101.093 84.17C101.016 84.2316 100.939 84.2931 100.862 84.3547C100.77 84.4162 100.677 84.4623 100.585 84.4931C100.493 84.5393 100.4 84.57 100.308 84.5854C100.2 84.6008 100.108 84.6162 100 84.6162C99.6005 84.6162 99.2005 84.447 98.9081 84.17C98.6312 83.8777 98.462 83.4777 98.462 83.0777C98.462 82.6777 98.6312 82.2777 98.9081 81.9854C99.0466 81.847 99.2158 81.7393 99.4158 81.6623C99.9851 81.4162 100.662 81.5547 101.093 81.9854C101.37 82.2777 101.539 82.6777 101.539 83.0777C101.539 83.4777 101.37 83.8777 101.093 84.17ZM106.477 89.5547C106.185 89.8316 105.785 90.0008 105.385 90.0008C104.985 90.0008 104.585 89.8316 104.293 89.5547C104.016 89.2623 103.847 88.8623 103.847 88.4623C103.847 88.0623 104.016 87.6624 104.293 87.37C104.862 86.8008 105.908 86.8008 106.477 87.37C106.754 87.6624 106.924 88.0623 106.924 88.4623C106.924 88.8623 106.754 89.2623 106.477 89.5547ZM106.477 84.17C106.4 84.2316 106.324 84.2931 106.247 84.3547C106.154 84.4162 106.062 84.4623 105.97 84.4931C105.877 84.5393 105.785 84.57 105.693 84.5854C105.585 84.6008 105.477 84.6162 105.385 84.6162C104.985 84.6162 104.585 84.447 104.293 84.17C104.016 83.8777 103.847 83.4777 103.847 83.0777C103.847 82.6777 104.016 82.2777 104.293 81.9854C104.447 81.847 104.6 81.7393 104.8 81.6623C105.077 81.5393 105.385 81.5085 105.693 81.57C105.785 81.5854 105.877 81.6162 105.97 81.6623C106.062 81.6931 106.154 81.7393 106.247 81.8008C106.324 81.8623 106.4 81.9239 106.477 81.9854C106.754 82.2777 106.924 82.6777 106.924 83.0777C106.924 83.4777 106.754 83.8777 106.477 84.17Z" fill="white"/>
</svg>
