<svg width="200" height="200" viewBox="0 0 200 200" fill="none" xmlns="http://www.w3.org/2000/svg">
<rect width="200" height="200" rx="10" fill="#494462"/>
<path d="M69.9791 152.36C69.9791 153.107 69.7991 153.807 69.4391 154.46C69.0925 155.113 68.5391 155.64 67.7791 156.04C67.0325 156.44 66.0858 156.64 64.9391 156.64H62.5991V162H59.7991V148.04H64.9391C66.0191 148.04 66.9391 148.227 67.6991 148.6C68.4591 148.973 69.0258 149.487 69.3991 150.14C69.7858 150.793 69.9791 151.533 69.9791 152.36ZM64.8191 154.38C65.5925 154.38 66.1658 154.207 66.5391 153.86C66.9125 153.5 67.0991 153 67.0991 152.36C67.0991 151 66.3391 150.32 64.8191 150.32H62.5991V154.38H64.8191ZM70.9471 156.42C70.9471 155.3 71.1671 154.307 71.6071 153.44C72.0604 152.573 72.6671 151.907 73.4271 151.44C74.2004 150.973 75.0604 150.74 76.0071 150.74C76.8338 150.74 77.5538 150.907 78.1671 151.24C78.7938 151.573 79.2938 151.993 79.6671 152.5V150.92H82.4871V162H79.6671V160.38C79.3071 160.9 78.8071 161.333 78.1671 161.68C77.5404 162.013 76.8138 162.18 75.9871 162.18C75.0538 162.18 74.2004 161.94 73.4271 161.46C72.6671 160.98 72.0604 160.307 71.6071 159.44C71.1671 158.56 70.9471 157.553 70.9471 156.42ZM79.6671 156.46C79.6671 155.78 79.5338 155.2 79.2671 154.72C79.0004 154.227 78.6404 153.853 78.1871 153.6C77.7338 153.333 77.2471 153.2 76.7271 153.2C76.2071 153.2 75.7271 153.327 75.2871 153.58C74.8471 153.833 74.4871 154.207 74.2071 154.7C73.9404 155.18 73.8071 155.753 73.8071 156.42C73.8071 157.087 73.9404 157.673 74.2071 158.18C74.4871 158.673 74.8471 159.053 75.2871 159.32C75.7404 159.587 76.2204 159.72 76.7271 159.72C77.2471 159.72 77.7338 159.593 78.1871 159.34C78.6404 159.073 79.0004 158.7 79.2671 158.22C79.5338 157.727 79.6671 157.14 79.6671 156.46ZM88.1818 153.22V158.58C88.1818 158.953 88.2685 159.227 88.4418 159.4C88.6285 159.56 88.9351 159.64 89.3618 159.64H90.6618V162H88.9018C86.5418 162 85.3618 160.853 85.3618 158.56V153.22H84.0418V150.92H85.3618V148.18H88.1818V150.92H90.6618V153.22H88.1818ZM93.7957 149.6C93.3024 149.6 92.889 149.447 92.5557 149.14C92.2357 148.82 92.0757 148.427 92.0757 147.96C92.0757 147.493 92.2357 147.107 92.5557 146.8C92.889 146.48 93.3024 146.32 93.7957 146.32C94.289 146.32 94.6957 146.48 95.0157 146.8C95.349 147.107 95.5157 147.493 95.5157 147.96C95.5157 148.427 95.349 148.82 95.0157 149.14C94.6957 149.447 94.289 149.6 93.7957 149.6ZM95.1757 150.92V162H92.3757V150.92H95.1757ZM107.942 156.22C107.942 156.62 107.915 156.98 107.862 157.3H99.7621C99.8288 158.1 100.109 158.727 100.602 159.18C101.095 159.633 101.702 159.86 102.422 159.86C103.462 159.86 104.202 159.413 104.642 158.52H107.662C107.342 159.587 106.729 160.467 105.822 161.16C104.915 161.84 103.802 162.18 102.482 162.18C101.415 162.18 100.455 161.947 99.6021 161.48C98.7621 161 98.1021 160.327 97.6221 159.46C97.1554 158.593 96.9221 157.593 96.9221 156.46C96.9221 155.313 97.1554 154.307 97.6221 153.44C98.0888 152.573 98.7421 151.907 99.5821 151.44C100.422 150.973 101.389 150.74 102.482 150.74C103.535 150.74 104.475 150.967 105.302 151.42C106.142 151.873 106.789 152.52 107.242 153.36C107.709 154.187 107.942 155.14 107.942 156.22ZM105.042 155.42C105.029 154.7 104.769 154.127 104.262 153.7C103.755 153.26 103.135 153.04 102.402 153.04C101.709 153.04 101.122 153.253 100.642 153.68C100.175 154.093 99.8888 154.673 99.7821 155.42H105.042ZM115.826 150.76C117.146 150.76 118.213 151.18 119.026 152.02C119.839 152.847 120.246 154.007 120.246 155.5V162H117.446V155.88C117.446 155 117.226 154.327 116.786 153.86C116.346 153.38 115.746 153.14 114.986 153.14C114.213 153.14 113.599 153.38 113.146 153.86C112.706 154.327 112.486 155 112.486 155.88V162H109.686V150.92H112.486V152.3C112.859 151.82 113.333 151.447 113.906 151.18C114.493 150.9 115.133 150.76 115.826 150.76ZM125.869 153.22V158.58C125.869 158.953 125.955 159.227 126.129 159.4C126.315 159.56 126.622 159.64 127.049 159.64H128.349V162H126.589C124.229 162 123.049 160.853 123.049 158.56V153.22H121.729V150.92H123.049V148.18H125.869V150.92H128.349V153.22H125.869ZM134.302 162.18C133.396 162.18 132.582 162.02 131.862 161.7C131.142 161.367 130.569 160.92 130.142 160.36C129.729 159.8 129.502 159.18 129.462 158.5H132.282C132.336 158.927 132.542 159.28 132.902 159.56C133.276 159.84 133.736 159.98 134.282 159.98C134.816 159.98 135.229 159.873 135.522 159.66C135.829 159.447 135.982 159.173 135.982 158.84C135.982 158.48 135.796 158.213 135.422 158.04C135.062 157.853 134.482 157.653 133.682 157.44C132.856 157.24 132.176 157.033 131.642 156.82C131.122 156.607 130.669 156.28 130.282 155.84C129.909 155.4 129.722 154.807 129.722 154.06C129.722 153.447 129.896 152.887 130.242 152.38C130.602 151.873 131.109 151.473 131.762 151.18C132.429 150.887 133.209 150.74 134.102 150.74C135.422 150.74 136.476 151.073 137.262 151.74C138.049 152.393 138.482 153.28 138.562 154.4H135.882C135.842 153.96 135.656 153.613 135.322 153.36C135.002 153.093 134.569 152.96 134.022 152.96C133.516 152.96 133.122 153.053 132.842 153.24C132.576 153.427 132.442 153.687 132.442 154.02C132.442 154.393 132.629 154.68 133.002 154.88C133.376 155.067 133.956 155.26 134.742 155.46C135.542 155.66 136.202 155.867 136.722 156.08C137.242 156.293 137.689 156.627 138.062 157.08C138.449 157.52 138.649 158.107 138.662 158.84C138.662 159.48 138.482 160.053 138.122 160.56C137.776 161.067 137.269 161.467 136.602 161.76C135.949 162.04 135.182 162.18 134.302 162.18Z" fill="white"/>
<circle cx="100" cy="80" r="39" fill="#494462" stroke="white" stroke-width="2" stroke-dasharray="4 4"/>
<g clip-path="url(#clip0_553_4649)">
<path d="M104.167 99.9999C103.612 99.9999 103.09 99.7232 102.78 99.2582L99.9417 94.9999H96.6667C95.7467 94.9999 95 94.2532 95 93.3332C95 92.4132 95.7467 91.6665 96.6667 91.6665H100.833C101.39 91.6665 101.91 91.9449 102.22 92.4082L103.96 95.0182L107.675 87.5865C107.948 87.0432 108.493 86.6899 109.102 86.6665C109.748 86.6515 110.282 86.9532 110.595 87.4732L115.11 94.9999H118.333C119.253 94.9999 120 95.7465 120 96.6665C120 97.5865 119.253 98.3332 118.333 98.3332H114.167C113.582 98.3332 113.038 98.0265 112.738 97.5249L109.3 91.7949L105.658 99.0799C105.392 99.6115 104.863 99.9615 104.27 99.9982C104.237 99.9999 104.202 99.9999 104.167 99.9999Z" fill="white"/>
<path d="M94.9993 76.6667C99.6017 76.6667 103.333 72.9357 103.333 68.3333C103.333 63.731 99.6017 60 94.9993 60C90.397 60 86.666 63.731 86.666 68.3333C86.666 72.9357 90.397 76.6667 94.9993 76.6667Z" fill="white"/>
<path d="M91.6667 93.3333C91.6667 90.5767 93.91 88.3333 96.6667 88.3333H100.833C101.698 88.3333 102.532 88.555 103.263 88.9617L104.695 86.0967C105.423 84.645 106.81 83.6933 108.385 83.44C106.868 81.365 104.435 80 101.667 80H88.3333C83.7317 80 80 83.7317 80 88.3333V93.75C80 94.44 80.56 95 81.25 95H91.9733C91.7867 94.4767 91.6667 93.92 91.6667 93.3333Z" fill="white"/>
</g>
<defs>
<clipPath id="clip0_553_4649">
<rect width="40" height="40" fill="white" transform="translate(80 60)"/>
</clipPath>
</defs>
</svg>
