<svg width="200" height="200" viewBox="0 0 200 200" fill="none" xmlns="http://www.w3.org/2000/svg">
<rect width="200" height="200" rx="10" fill="#494462"/>
<path d="M48.7121 155C48.7121 153.627 49.0188 152.4 49.6321 151.32C50.2588 150.227 51.1054 149.38 52.1721 148.78C53.2521 148.167 54.4588 147.86 55.7921 147.86C57.3521 147.86 58.7188 148.26 59.8921 149.06C61.0654 149.86 61.8854 150.967 62.3521 152.38H59.1321C58.8121 151.713 58.3588 151.213 57.7721 150.88C57.1988 150.547 56.5321 150.38 55.7721 150.38C54.9588 150.38 54.2321 150.573 53.5921 150.96C52.9654 151.333 52.4721 151.867 52.1121 152.56C51.7654 153.253 51.5921 154.067 51.5921 155C51.5921 155.92 51.7654 156.733 52.1121 157.44C52.4721 158.133 52.9654 158.673 53.5921 159.06C54.2321 159.433 54.9588 159.62 55.7721 159.62C56.5321 159.62 57.1988 159.453 57.7721 159.12C58.3588 158.773 58.8121 158.267 59.1321 157.6H62.3521C61.8854 159.027 61.0654 160.14 59.8921 160.94C58.7321 161.727 57.3654 162.12 55.7921 162.12C54.4588 162.12 53.2521 161.82 52.1721 161.22C51.1054 160.607 50.2588 159.76 49.6321 158.68C49.0188 157.6 48.7121 156.373 48.7121 155ZM63.7237 156.42C63.7237 155.3 63.9437 154.307 64.3837 153.44C64.837 152.573 65.4437 151.907 66.2037 151.44C66.977 150.973 67.837 150.74 68.7837 150.74C69.6103 150.74 70.3303 150.907 70.9437 151.24C71.5703 151.573 72.0703 151.993 72.4437 152.5V150.92H75.2637V162H72.4437V160.38C72.0837 160.9 71.5837 161.333 70.9437 161.68C70.317 162.013 69.5903 162.18 68.7637 162.18C67.8303 162.18 66.977 161.94 66.2037 161.46C65.4437 160.98 64.837 160.307 64.3837 159.44C63.9437 158.56 63.7237 157.553 63.7237 156.42ZM72.4437 156.46C72.4437 155.78 72.3103 155.2 72.0437 154.72C71.777 154.227 71.417 153.853 70.9637 153.6C70.5103 153.333 70.0237 153.2 69.5037 153.2C68.9837 153.2 68.5037 153.327 68.0637 153.58C67.6237 153.833 67.2637 154.207 66.9837 154.7C66.717 155.18 66.5837 155.753 66.5837 156.42C66.5837 157.087 66.717 157.673 66.9837 158.18C67.2637 158.673 67.6237 159.053 68.0637 159.32C68.517 159.587 68.997 159.72 69.5037 159.72C70.0237 159.72 70.5103 159.593 70.9637 159.34C71.417 159.073 71.777 158.7 72.0437 158.22C72.3103 157.727 72.4437 157.14 72.4437 156.46ZM80.4984 147.2V162H77.6984V147.2H80.4984ZM93.2648 156.22C93.2648 156.62 93.2381 156.98 93.1848 157.3H85.0848C85.1514 158.1 85.4314 158.727 85.9248 159.18C86.4181 159.633 87.0248 159.86 87.7448 159.86C88.7848 159.86 89.5248 159.413 89.9648 158.52H92.9848C92.6648 159.587 92.0514 160.467 91.1448 161.16C90.2381 161.84 89.1248 162.18 87.8048 162.18C86.7381 162.18 85.7781 161.947 84.9248 161.48C84.0848 161 83.4248 160.327 82.9448 159.46C82.4781 158.593 82.2448 157.593 82.2448 156.46C82.2448 155.313 82.4781 154.307 82.9448 153.44C83.4114 152.573 84.0648 151.907 84.9048 151.44C85.7448 150.973 86.7114 150.74 87.8048 150.74C88.8581 150.74 89.7981 150.967 90.6248 151.42C91.4648 151.873 92.1114 152.52 92.5648 153.36C93.0314 154.187 93.2648 155.14 93.2648 156.22ZM90.3648 155.42C90.3514 154.7 90.0914 154.127 89.5848 153.7C89.0781 153.26 88.4581 153.04 87.7248 153.04C87.0314 153.04 86.4448 153.253 85.9648 153.68C85.4981 154.093 85.2114 154.673 85.1048 155.42H90.3648ZM101.149 150.76C102.469 150.76 103.535 151.18 104.349 152.02C105.162 152.847 105.569 154.007 105.569 155.5V162H102.769V155.88C102.769 155 102.549 154.327 102.109 153.86C101.669 153.38 101.069 153.14 100.309 153.14C99.5352 153.14 98.9218 153.38 98.4685 153.86C98.0285 154.327 97.8085 155 97.8085 155.88V162H95.0085V150.92H97.8085V152.3C98.1818 151.82 98.6552 151.447 99.2285 151.18C99.8152 150.9 100.455 150.76 101.149 150.76ZM107.211 156.42C107.211 155.3 107.431 154.307 107.871 153.44C108.325 152.573 108.938 151.907 109.711 151.44C110.485 150.973 111.345 150.74 112.291 150.74C113.011 150.74 113.698 150.9 114.351 151.22C115.005 151.527 115.525 151.94 115.911 152.46V147.2H118.751V162H115.911V160.36C115.565 160.907 115.078 161.347 114.451 161.68C113.825 162.013 113.098 162.18 112.271 162.18C111.338 162.18 110.485 161.94 109.711 161.46C108.938 160.98 108.325 160.307 107.871 159.44C107.431 158.56 107.211 157.553 107.211 156.42ZM115.931 156.46C115.931 155.78 115.798 155.2 115.531 154.72C115.265 154.227 114.905 153.853 114.451 153.6C113.998 153.333 113.511 153.2 112.991 153.2C112.471 153.2 111.991 153.327 111.551 153.58C111.111 153.833 110.751 154.207 110.471 154.7C110.205 155.18 110.071 155.753 110.071 156.42C110.071 157.087 110.205 157.673 110.471 158.18C110.751 158.673 111.111 159.053 111.551 159.32C112.005 159.587 112.485 159.72 112.991 159.72C113.511 159.72 113.998 159.593 114.451 159.34C114.905 159.073 115.265 158.7 115.531 158.22C115.798 157.727 115.931 157.14 115.931 156.46ZM123.986 152.64C124.346 152.053 124.813 151.593 125.386 151.26C125.973 150.927 126.639 150.76 127.386 150.76V153.7H126.646C125.766 153.7 125.099 153.907 124.646 154.32C124.206 154.733 123.986 155.453 123.986 156.48V162H121.186V150.92H123.986V152.64ZM130.392 149.6C129.898 149.6 129.485 149.447 129.152 149.14C128.832 148.82 128.672 148.427 128.672 147.96C128.672 147.493 128.832 147.107 129.152 146.8C129.485 146.48 129.898 146.32 130.392 146.32C130.885 146.32 131.292 146.48 131.612 146.8C131.945 147.107 132.112 147.493 132.112 147.96C132.112 148.427 131.945 148.82 131.612 149.14C131.292 149.447 130.885 149.6 130.392 149.6ZM131.772 150.92V162H128.972V150.92H131.772ZM144.538 156.22C144.538 156.62 144.512 156.98 144.458 157.3H136.358C136.425 158.1 136.705 158.727 137.198 159.18C137.692 159.633 138.298 159.86 139.018 159.86C140.058 159.86 140.798 159.413 141.238 158.52H144.258C143.938 159.587 143.325 160.467 142.418 161.16C141.512 161.84 140.398 162.18 139.078 162.18C138.012 162.18 137.052 161.947 136.198 161.48C135.358 161 134.698 160.327 134.218 159.46C133.752 158.593 133.518 157.593 133.518 156.46C133.518 155.313 133.752 154.307 134.218 153.44C134.685 152.573 135.338 151.907 136.178 151.44C137.018 150.973 137.985 150.74 139.078 150.74C140.132 150.74 141.072 150.967 141.898 151.42C142.738 151.873 143.385 152.52 143.838 153.36C144.305 154.187 144.538 155.14 144.538 156.22ZM141.638 155.42C141.625 154.7 141.365 154.127 140.858 153.7C140.352 153.26 139.732 153.04 138.998 153.04C138.305 153.04 137.718 153.253 137.238 153.68C136.772 154.093 136.485 154.673 136.378 155.42H141.638ZM149.082 152.64C149.442 152.053 149.909 151.593 150.482 151.26C151.069 150.927 151.735 150.76 152.482 150.76V153.7H151.742C150.862 153.7 150.195 153.907 149.742 154.32C149.302 154.733 149.082 155.453 149.082 156.48V162H146.282V150.92H149.082V152.64Z" fill="white"/>
<circle cx="100" cy="80" r="41" fill="#494462" stroke="white" stroke-width="2" stroke-dasharray="4 4"/>
<path d="M107.307 67.0148V64.6148C107.307 63.984 106.784 63.4609 106.153 63.4609C105.522 63.4609 104.999 63.984 104.999 64.6148V66.9225H94.9993V64.6148C94.9993 63.984 94.4762 63.4609 93.8455 63.4609C93.2147 63.4609 92.6916 63.984 92.6916 64.6148V67.0148C88.5378 67.3994 86.5224 69.8763 86.2147 73.5532C86.1839 73.9994 86.5531 74.3686 86.9839 74.3686H113.015C113.461 74.3686 113.83 73.984 113.784 73.5532C113.476 69.8763 111.461 67.3994 107.307 67.0148Z" fill="white"/>
<path d="M112.307 76.6768H87.6918C86.8456 76.6768 86.1533 77.3691 86.1533 78.2152V87.6921C86.1533 92.3075 88.461 95.3845 93.8456 95.3845H106.153C111.538 95.3845 113.846 92.3075 113.846 87.6921V78.2152C113.846 77.3691 113.153 76.6768 112.307 76.6768ZM95.7072 89.5537C95.6302 89.6152 95.5533 89.6921 95.4764 89.7383C95.3841 89.7998 95.2918 89.846 95.1995 89.8768C95.1072 89.9229 95.0149 89.9537 94.9226 89.9691C94.8149 89.9844 94.7226 89.9998 94.6149 89.9998C94.4149 89.9998 94.2149 89.9537 94.0302 89.8768C93.8302 89.7998 93.6764 89.6921 93.5226 89.5537C93.2456 89.2614 93.0764 88.8614 93.0764 88.4614C93.0764 88.0614 93.2456 87.6614 93.5226 87.3691C93.6764 87.2306 93.8302 87.1229 94.0302 87.046C94.3072 86.9229 94.6149 86.8921 94.9226 86.9537C95.0149 86.9691 95.1072 86.9998 95.1995 87.046C95.2918 87.0768 95.3841 87.1229 95.4764 87.1845C95.5533 87.246 95.6302 87.3075 95.7072 87.3691C95.9841 87.6614 96.1533 88.0614 96.1533 88.4614C96.1533 88.8614 95.9841 89.2614 95.7072 89.5537ZM95.7072 84.1691C95.4149 84.446 95.0149 84.6152 94.6149 84.6152C94.2149 84.6152 93.8149 84.446 93.5226 84.1691C93.2456 83.8768 93.0764 83.4768 93.0764 83.0768C93.0764 82.6768 93.2456 82.2768 93.5226 81.9844C93.9533 81.5537 94.6302 81.4152 95.1995 81.6614C95.3995 81.7383 95.5687 81.846 95.7072 81.9844C95.9841 82.2768 96.1533 82.6768 96.1533 83.0768C96.1533 83.4768 95.9841 83.8768 95.7072 84.1691ZM101.092 89.5537C100.799 89.8306 100.399 89.9998 99.9995 89.9998C99.5995 89.9998 99.1995 89.8306 98.9072 89.5537C98.6302 89.2614 98.461 88.8614 98.461 88.4614C98.461 88.0614 98.6302 87.6614 98.9072 87.3691C99.4764 86.7998 100.523 86.7998 101.092 87.3691C101.369 87.6614 101.538 88.0614 101.538 88.4614C101.538 88.8614 101.369 89.2614 101.092 89.5537ZM101.092 84.1691C101.015 84.2306 100.938 84.2921 100.861 84.3537C100.769 84.4152 100.676 84.4614 100.584 84.4921C100.492 84.5383 100.399 84.5691 100.307 84.5844C100.199 84.5998 100.107 84.6152 99.9995 84.6152C99.5995 84.6152 99.1995 84.446 98.9072 84.1691C98.6302 83.8768 98.461 83.4768 98.461 83.0768C98.461 82.6768 98.6302 82.2768 98.9072 81.9844C99.0456 81.846 99.2149 81.7383 99.4149 81.6614C99.9841 81.4152 100.661 81.5537 101.092 81.9844C101.369 82.2768 101.538 82.6768 101.538 83.0768C101.538 83.4768 101.369 83.8768 101.092 84.1691ZM106.476 89.5537C106.184 89.8306 105.784 89.9998 105.384 89.9998C104.984 89.9998 104.584 89.8306 104.292 89.5537C104.015 89.2614 103.846 88.8614 103.846 88.4614C103.846 88.0614 104.015 87.6614 104.292 87.3691C104.861 86.7998 105.907 86.7998 106.476 87.3691C106.753 87.6614 106.923 88.0614 106.923 88.4614C106.923 88.8614 106.753 89.2614 106.476 89.5537ZM106.476 84.1691C106.399 84.2306 106.323 84.2921 106.246 84.3537C106.153 84.4152 106.061 84.4614 105.969 84.4921C105.876 84.5383 105.784 84.5691 105.692 84.5844C105.584 84.5998 105.476 84.6152 105.384 84.6152C104.984 84.6152 104.584 84.446 104.292 84.1691C104.015 83.8768 103.846 83.4768 103.846 83.0768C103.846 82.6768 104.015 82.2768 104.292 81.9844C104.446 81.846 104.599 81.7383 104.799 81.6614C105.076 81.5383 105.384 81.5075 105.692 81.5691C105.784 81.5845 105.876 81.6152 105.969 81.6614C106.061 81.6921 106.153 81.7383 106.246 81.7998C106.323 81.8614 106.399 81.9229 106.476 81.9844C106.753 82.2768 106.923 82.6768 106.923 83.0768C106.923 83.4768 106.753 83.8768 106.476 84.1691Z" fill="white"/>
</svg>
