<svg width="20" height="20" viewBox="0 0 20 20" fill="none" xmlns="http://www.w3.org/2000/svg">
<g clip-path="url(#clip0_238_2615)">
<path d="M10 0C15.5228 0 20 4.47715 20 10C20 15.5228 15.5228 20 10 20C4.47715 20 0 15.5228 0 10C0 4.47715 4.47715 0 10 0Z" fill="#F0F0F0"/>
<path d="M2.06718 16.0879C1.28167 15.0659 0.689365 13.888 0.344482 12.6083H5.54675L2.06718 16.0879Z" fill="#0052B4"/>
<path d="M19.6556 12.6084C19.3107 13.888 18.7183 15.0659 17.9329 16.0879L14.4534 12.6084H19.6556Z" fill="#0052B4"/>
<path d="M0.344482 7.39111C0.689404 6.1115 1.28171 4.93357 2.06718 3.91162L5.54663 7.39111H0.344482Z" fill="#0052B4"/>
<path d="M16.0882 17.9325C15.0662 18.718 13.8883 19.3104 12.6086 19.6553V14.453L16.0882 17.9325Z" fill="#0052B4"/>
<path d="M3.91187 2.06693C4.93386 1.28143 6.11179 0.689121 7.3914 0.344199V5.54639L3.91187 2.06693Z" fill="#0052B4"/>
<path d="M7.39136 19.6553C6.11175 19.3104 4.93382 18.718 3.91187 17.9326L7.39136 14.4531V19.6553Z" fill="#0052B4"/>
<path d="M12.6086 0.344199C13.8883 0.689121 15.0662 1.28143 16.0881 2.0669L12.6086 5.54639V0.344199Z" fill="#0052B4"/>
<path d="M14.4534 7.39111L17.9329 3.91158C18.7183 4.93354 19.3107 6.1115 19.6556 7.39111H14.4534Z" fill="#0052B4"/>
<path d="M19.9154 11.3043H11.3044H11.3044V19.9154C10.8774 19.9709 10.4421 20 10 20C9.55785 20 9.12262 19.9709 8.69566 19.9154V11.3044V11.3044H0.0846484C0.0290625 10.8774 0 10.4421 0 10C0 9.55785 0.0290625 9.12262 0.0846484 8.69566H8.69559H8.69563V0.0846481C9.12262 0.0290623 9.55785 0 10 0C10.4421 0 10.8774 0.0290222 11.3043 0.0846481V8.69559V8.69563H19.9154C19.9709 9.12262 20 9.55785 20 10C20 10.4421 19.9709 10.8774 19.9154 11.3043Z" fill="#D80027"/>
<path d="M12.6086 7.39107L17.071 2.92873C17.2762 3.13389 17.472 3.34838 17.6588 3.57072L13.8384 7.39111H12.6086V7.39107Z" fill="#D80027"/>
<path d="M7.39134 7.39111H7.39126L2.92896 2.92881C3.13411 2.72357 3.3486 2.52779 3.57095 2.341L7.39134 6.16146V7.39111Z" fill="#D80027"/>
<path d="M7.39122 12.6088V12.6089L2.92888 17.0713C2.72364 16.8661 2.52786 16.6516 2.34106 16.4293L6.16149 12.6089L7.39122 12.6088Z" fill="#D80027"/>
<path d="M12.6086 12.6085L17.071 17.0709C16.8659 17.2762 16.6514 17.4719 16.429 17.6587L12.6086 13.8383V12.6085Z" fill="#D80027"/>
</g>
<defs>
<clipPath id="clip0_238_2615">
<rect width="20" height="20" fill="white" transform="matrix(1 0 0 -1 0 20)"/>
</clipPath>
</defs>
</svg>
