<svg width="20" height="20" viewBox="0 0 20 20" fill="none" xmlns="http://www.w3.org/2000/svg">
<path fill-rule="evenodd" clip-rule="evenodd" d="M14.1328 19.1081V0.891602C17.5932 2.46445 19.9995 5.95105 19.9995 9.99984C19.9995 14.0486 17.5932 17.5352 14.1328 19.1081Z" fill="#ED2939"/>
<path fill-rule="evenodd" clip-rule="evenodd" d="M5.86668 0.891602V19.1081C2.40625 17.5352 0 14.0486 0 9.99984C0 5.95105 2.40625 2.46445 5.86668 0.891602Z" fill="#002395"/>
<path fill-rule="evenodd" clip-rule="evenodd" d="M14.1328 0.89176V19.1082C12.8341 19.696 11.425 20 9.99953 20C8.57403 20 7.16491 19.696 5.86621 19.1082V0.89176C7.16491 0.304015 8.57403 0 9.99953 0C11.425 0 12.8341 0.304015 14.1328 0.89176Z" fill="#F5F5F5"/>
</svg>
