<svg width="44" height="44" viewBox="0 0 44 44" fill="none" xmlns="http://www.w3.org/2000/svg">
<path d="M15.3633 22.0001L19.7816 26.4368L28.6366 17.5635" stroke="white" stroke-width="2.5" stroke-linecap="round" stroke-linejoin="round"/>
<path d="M19.7083 4.49143C20.9733 3.40976 23.0449 3.40976 24.3283 4.49143L27.2249 6.98476C27.7749 7.46143 28.8016 7.84643 29.5349 7.84643H32.6516C34.5949 7.84643 36.1899 9.44143 36.1899 11.3848V14.5014C36.1899 15.2164 36.5749 16.2614 37.0516 16.8114L39.5449 19.7081C40.6266 20.9731 40.6266 23.0448 39.5449 24.3281L37.0516 27.2248C36.5749 27.7748 36.1899 28.8014 36.1899 29.5348V32.6514C36.1899 34.5948 34.5949 36.1898 32.6516 36.1898H29.5349C28.8199 36.1898 27.7749 36.5748 27.2249 37.0514L24.3283 39.5448C23.0633 40.6264 20.9916 40.6264 19.7083 39.5448L16.8116 37.0514C16.2616 36.5748 15.2349 36.1898 14.5016 36.1898H11.3299C9.38661 36.1898 7.79161 34.5948 7.79161 32.6514V29.5164C7.79161 28.8014 7.40661 27.7748 6.94828 27.2248L4.47328 24.3098C3.40995 23.0448 3.40995 20.9914 4.47328 19.7264L6.94828 16.8114C7.40661 16.2614 7.79161 15.2348 7.79161 14.5198V11.3664C7.79161 9.42309 9.38661 7.82809 11.3299 7.82809H14.5016C15.2166 7.82809 16.2616 7.44309 16.8116 6.96643L19.7083 4.49143Z" stroke="white" stroke-width="2.5" stroke-linecap="round" stroke-linejoin="round"/>
</svg>
